# xmcd
#
# Track frame offsets:
#	150
#	21125
#	52244
#	71232
#	90202
#	109578
#	126166
#	146118
#	166693
#	177539
#	206395
#	232277
#	261122
#	294792
#	321127
#	338040
#
# Disc length: 4734 seconds
#
# Revision: 0
# Processed by: cddbd v1.5.1PL0 Copyright (c) Steve Scherf et al.
# Submitted via: EasyCDDAExtractor 8.2.1.1
#
DISCID=ea127c10
DTITLE=Various Artist - Cafe Del Mar - London
DYEAR=2002
DGENRE=Acid Jazz
TTITLE0=Air - How Does It Make You Fee
TTITLE1=Bliss - Kissing
TTITLE2=Gentle People - - Groovin' With You
TTITLE3=Goldfrapp - Utopia
TTITLE4=Keiko Matsui - Bridge Over The Stars
TTITLE5=Massive Attack - Heat Miser
TTITLE6=Mono - Life Is Mono
TTITLE7=N.o.w. - Night Interlude
TTITLE8=Badmarsh and Shiri - Signs
TTITLE9=Red - Squeeler
TTITLE10=REMOTE - POSTCARD
TTITLE11=Brightlight - Feeling Weird
TTITLE12=Solaris Heights - Elementis
TTITLE13=Nimbus - Subconscious Mind
TTITLE14=Air - Kelly, Whatch The Stars!
TTITLE15=A New Funky Generation - The Messenger
EXTD=
EXTT0=
EXTT1=
EXTT2=
EXTT3=
EXTT4=
EXTT5=
EXTT6=
EXTT7=
EXTT8=
EXTT9=
EXTT10=
EXTT11=
EXTT12=
EXTT13=
EXTT14=
EXTT15=
PLAYORDER=
